<!DOCTYPE svg PUBLIC "-//W3C//DTD SVG 1.1//EN" "http://www.w3.org/Graphics/SVG/1.1/DTD/svg11.dtd">
<!-- Uploaded to: SVG Repo, www.svgrepo.com, Transformed by: SVG Repo Mixer Tools -->
<svg fill="#fff" width="800px" height="800px" viewBox="0 0 32 32" version="1.1" xmlns="http://www.w3.org/2000/svg" stroke="#fff">
<g id="SVGRepo_bgCarrier" stroke-width="0"/>
<g id="SVGRepo_tracerCarrier" stroke-linecap="round" stroke-linejoin="round"/>
<g id="SVGRepo_iconCarrier"> <title>celcius</title> <path d="M29.051 22.020c-0.048-0.022-0.104-0.035-0.164-0.035-0.163 0-0.304 0.099-0.365 0.24l-0.001 0.003c-0.839 1.933-2.175 3.516-3.848 4.634l-0.038 0.024c-1.625 1.103-3.63 1.76-5.789 1.76-0.036 0-0.072-0-0.108-0.001l0.005 0c-0.046 0.001-0.101 0.001-0.155 0.001-2.929 0-5.575-1.211-7.465-3.159l-0.002-0.003c-1.944-1.924-3.147-4.593-3.147-7.543 0-0.071 0.001-0.142 0.002-0.213l-0 0.011c-0.001-0.060-0.002-0.131-0.002-0.202 0-2.949 1.204-5.617 3.147-7.54l0.001-0.001c1.893-1.951 4.54-3.162 7.469-3.162 0.054 0 0.108 0 0.162 0.001l-0.008-0c0.029-0 0.064-0 0.099-0 2.159 0 4.165 0.657 5.828 1.783l-0.037-0.023c1.711 1.143 3.047 2.727 3.86 4.591l0.026 0.068c0.063 0.143 0.203 0.242 0.367 0.242 0.059 0 0.115-0.013 0.165-0.036l-0.003 0.001 0.922-0.409c0.141-0.064 0.238-0.203 0.238-0.365 0-0.059-0.013-0.114-0.035-0.165l0.001 0.002c-0.995-2.237-2.556-4.070-4.503-5.369l-0.045-0.029c-1.902-1.284-4.246-2.049-6.769-2.049-0.040 0-0.080 0-0.12 0.001l0.006-0c-0.061-0.001-0.134-0.002-0.207-0.002-3.41 0-6.492 1.406-8.697 3.67l-0.003 0.003c-2.257 2.232-3.655 5.329-3.655 8.753 0 0.084 0.001 0.167 0.003 0.251l-0-0.012c-0.002 0.072-0.002 0.156-0.002 0.24 0 3.423 1.398 6.519 3.654 8.75l0.001 0.001c2.206 2.266 5.286 3.672 8.694 3.672 0.075 0 0.149-0.001 0.223-0.002l-0.011 0c0.036 0 0.078 0.001 0.12 0.001 2.522 0 4.864-0.766 6.809-2.077l-0.043 0.028c1.992-1.327 3.552-3.16 4.515-5.317l0.032-0.079c0.022-0.048 0.034-0.103 0.034-0.162 0-0.162-0.096-0.301-0.235-0.364l-0.003-0.001zM7.336 4.198c0-0 0-0 0-0 0-1.628-1.32-2.948-2.948-2.948s-2.948 1.32-2.948 2.948c0 1.628 1.319 2.947 2.947 2.948h0c1.627-0.002 2.946-1.32 2.948-2.947v-0zM4.388 5.646c-0.799-0-1.447-0.648-1.447-1.448s0.648-1.448 1.448-1.448 1.448 0.648 1.448 1.448c0 0 0 0 0 0.001v-0c-0.001 0.799-0.649 1.447-1.448 1.447h-0z"/> </g>
</svg>