<!DOCTYPE svg PUBLIC "-//W3C//DTD SVG 1.1//EN" "http://www.w3.org/Graphics/SVG/1.1/DTD/svg11.dtd">

<!-- Uploaded to: SVG Repo, www.svgrepo.com, Transformed by: SVG Repo Mixer Tools -->
<svg fill="#fff" height="50px" width="50px" version="1.1" id="Layer_1" xmlns="http://www.w3.org/2000/svg" xmlns:xlink="http://www.w3.org/1999/xlink" viewBox="0 0 512 512" xml:space="preserve" transform="matrix(-1, 0, 0, 1, 0, 0)" stroke="#fff" stroke-width="5.12">

<g id="SVGRepo_bgCarrier" stroke-width="0"/>

<g id="SVGRepo_tracerCarrier" stroke-linecap="round" stroke-linejoin="round"/>

<g id="SVGRepo_iconCarrier"> <g> <g> <g> <path d="M159.639,371.616l-38.65,38.65c-3.131,3.131-3.131,8.207,0,11.337c1.565,1.566,3.617,2.348,5.668,2.348 s4.104-0.782,5.668-2.348l38.65-38.65c3.131-3.131,3.131-8.207,0-11.337C167.846,368.485,162.77,368.485,159.639,371.616z"/> <path d="M275.548,371.616c-3.132-3.131-8.207-3.131-11.338,0l-38.649,38.65c-3.131,3.131-3.131,8.207,0,11.337 c1.565,1.565,3.617,2.348,5.668,2.348c2.051,0,4.104-0.782,5.668-2.348l38.65-38.65 C278.679,379.823,278.679,374.747,275.548,371.616z"/> <path d="M482.347,148.114c-17.998-20.753-42.458-34.782-69.25-39.811c-13.764-26.933-34.43-49.739-59.98-66.138 c-27.457-17.622-59.29-26.937-92.06-26.937c-69.879,0-132.976,43.056-158.649,107.67C44.564,128.403,0,176.963,0,235.694 c0,62.484,50.834,113.318,113.318,113.318h277.287c66.937,0,121.395-54.458,121.395-121.396 C512,198.396,501.468,170.161,482.347,148.114z M390.605,332.979H113.318c-53.642,0-97.284-43.641-97.284-97.284 c0-51.946,40.606-94.625,92.444-97.161c3.228-0.158,6.046-2.239,7.147-5.279C137.708,72.25,196.152,31.262,261.057,31.262 c29.693,0,58.532,8.436,83.398,24.396c24.225,15.548,43.607,37.45,56.049,63.336c1.148,2.389,3.403,4.056,6.025,4.453 c24.65,3.735,47.275,16.225,63.706,35.17c16.594,19.133,25.733,43.637,25.733,68.997 C495.967,285.713,448.701,332.979,390.605,332.979z"/> <path d="M159.639,444.435l-38.65,38.65c-3.131,3.131-3.131,8.207,0,11.338c1.565,1.566,3.617,2.348,5.668,2.348 s4.104-0.782,5.668-2.348l38.65-38.65c3.131-3.131,3.131-8.207,0-11.338C167.846,441.304,162.77,441.306,159.639,444.435z"/> <path d="M279.179,436.704l-38.65,38.65c-3.131,3.131-3.131,8.207,0,11.338c1.565,1.565,3.617,2.348,5.668,2.348 s4.103-0.782,5.668-2.348l38.651-38.65c3.131-3.131,3.131-8.207,0-11.338C287.385,433.573,282.31,433.573,279.179,436.704z"/> <path d="M379.673,371.616l-38.65,38.65c-3.131,3.131-3.131,8.207,0,11.337c1.566,1.566,3.617,2.348,5.669,2.348 c2.051,0,4.104-0.782,5.669-2.348l38.65-38.65c3.131-3.131,3.131-8.207,0-11.337 C387.881,368.485,382.806,368.485,379.673,371.616z"/> </g> </g> </g> </g>

</svg>