<!DOCTYPE svg PUBLIC "-//W3C//DTD SVG 1.1//EN" "http://www.w3.org/Graphics/SVG/1.1/DTD/svg11.dtd">

<!-- Uploaded to: SVG Repo, www.svgrepo.com, Transformed by: SVG Repo Mixer Tools -->
<svg fill="#fff" height="50px" width="50px" viewBox="0 0 32 32" version="1.1" xmlns="http://www.w3.org/2000/svg" stroke="#fff">

<g id="SVGRepo_bgCarrier" stroke-width="0"/>

<g id="SVGRepo_tracerCarrier" stroke-linecap="round" stroke-linejoin="round"/>

<g id="SVGRepo_iconCarrier"> <title>temperature-arrow-down</title> <path d="M12.75 6.008c0-6.246-9.5-6.246-9.5 0v13.238c-1.235 1.224-2 2.921-2 4.796 0 3.728 3.022 6.75 6.75 6.75s6.75-3.022 6.75-6.75c0-1.875-0.765-3.572-2-4.796l-0.001-0zM8 29.25c-2.9-0-5.25-2.351-5.25-5.251 0-1.553 0.674-2.948 1.745-3.909l0.005-0.004 0.006-0.012c0.13-0.122 0.215-0.29 0.231-0.477l0-0.003c0.001-0.014 0.007-0.024 0.008-0.038l0.006-0.029v-13.52c-0.003-0.053-0.005-0.115-0.005-0.178 0-1.704 1.381-3.085 3.085-3.085 0.060 0 0.12 0.002 0.179 0.005l-0.008-0c0.051-0.003 0.111-0.005 0.17-0.005 1.704 0 3.085 1.381 3.085 3.085 0 0.063-0.002 0.125-0.006 0.186l0-0.008v13.52l0.006 0.029c0 0.014 0.006 0.024 0.008 0.038 0.016 0.19 0.101 0.358 0.23 0.479l0 0 0.006 0.012c1.076 0.966 1.75 2.361 1.75 3.913 0 2.9-2.35 5.25-5.25 5.251h-0zM8.75 21.367v-1.367c0-0.414-0.336-0.75-0.75-0.75s-0.75 0.336-0.75 0.75v0 1.367c-1.164 0.338-2 1.394-2 2.646 0 1.519 1.231 2.75 2.75 2.75s2.75-1.231 2.75-2.75c0-1.252-0.836-2.308-1.981-2.641l-0.019-0.005zM30.531 21.469c-0.136-0.136-0.324-0.22-0.531-0.22s-0.395 0.084-0.531 0.22v0l-4.719 4.719v-22.188c0-0.414-0.336-0.75-0.75-0.75s-0.75 0.336-0.75 0.75v0 22.189l-4.719-4.721c-0.136-0.136-0.324-0.22-0.531-0.22-0.415 0-0.751 0.336-0.751 0.751 0 0.207 0.084 0.395 0.22 0.531v0l5.999 6c0.136 0.135 0.324 0.219 0.531 0.219h0c0.104-0.001 0.202-0.021 0.292-0.059l-0.005 0.002c0.062-0.026 0.098-0.083 0.149-0.123 0.029-0.021 0.069-0.013 0.095-0.039l6-6c0.135-0.136 0.218-0.324 0.218-0.531s-0.083-0.395-0.218-0.531l0 0z"/> </g>

</svg>