<svg version="1.0" id="Layer_1" xmlns="http://www.w3.org/2000/svg" xmlns:xlink="http://www.w3.org/1999/xlink" x="0px" y="0px" width="100px" height="100px" viewBox="0 0 100 100" enable-background="new 0 0 100 100" xml:space="preserve">
<path fill="none" stroke="#ffffff" stroke-width="4" stroke-linecap="round" stroke-linejoin="round" stroke-miterlimit="10" d="
	M89.418,48.952c3.232-16.247-7.321-32.041-23.571-35.272c4.561,8.733,6.242,19.882,3.955,31.371
	C76.292,40.711,85.077,42.458,89.418,48.952z" id="id_101"></path>
<path fill="none" stroke="#ffffff" stroke-width="4" stroke-linecap="round" stroke-linejoin="round" stroke-miterlimit="10" d="
	M50.188,41.15c6.49-4.34,15.276-2.594,19.614,3.9c2.287-11.489,0.605-22.638-3.959-31.374C58.291,20.004,52.471,29.66,50.188,41.15z
	" id="id_102"></path>
<path fill="none" stroke="#ffffff" stroke-width="4" stroke-linecap="round" stroke-linejoin="round" stroke-miterlimit="10" d="
	M50.184,41.152c2.287-11.492,8.107-21.147,15.659-27.476l0.004,0.003C49.591,10.445,33.803,21,30.571,37.249
	c6.494-4.339,15.276-2.592,19.613,3.901V41.152z" id="id_103"></path>
<path fill="none" stroke="#ffffff" stroke-width="4" stroke-linecap="round" stroke-linejoin="round" stroke-miterlimit="10" d="
	M66.579,10l-0.729,3.679L66.579,10z" id="id_104"></path>
<polygon fill="none" stroke="#ffffff" stroke-width="4" stroke-linecap="round" stroke-linejoin="round" stroke-miterlimit="10" points="
	15.336,51.668 29.999,70 90,70 90,77.498 26.395,77.498 10,57.004 " id="id_105"></polygon>
<path fill="none" stroke="#ffffff" stroke-width="4" stroke-linecap="round" stroke-linejoin="round" stroke-miterlimit="10" d="
	M26.395,77.498L18.895,90L26.395,77.498z" id="id_106"></path>
<path fill="none" stroke="#ffffff" stroke-width="4" stroke-linecap="round" stroke-linejoin="round" stroke-miterlimit="10" d="
	M85.001,90L72.499,77.498L85.001,90z" id="id_107"></path>
<path fill="none" stroke="#ffffff" stroke-width="4" stroke-linecap="round" stroke-linejoin="round" stroke-miterlimit="10" d="
	M53.154,77.498L50.666,90L53.154,77.498z" id="id_108"></path>
<path fill="none" stroke="#ffffff" stroke-width="4" stroke-linecap="round" stroke-linejoin="round" stroke-miterlimit="10" d="
	M60.805,39.039L54.645,70L60.805,39.039z" id="id_109"></path>
</svg>