<!DOCTYPE svg PUBLIC "-//W3C//DTD SVG 1.1//EN" "http://www.w3.org/Graphics/SVG/1.1/DTD/svg11.dtd">
<!-- Uploaded to: SVG Repo, www.svgrepo.com, Transformed by: SVG Repo Mixer Tools -->
<svg fill="#fff" version="1.1" id="Layer_1" xmlns="http://www.w3.org/2000/svg" xmlns:xlink="http://www.w3.org/1999/xlink" viewBox="0 0 496 496" xml:space="preserve" width="800px" height="800px" stroke="#fff">
<g id="SVGRepo_bgCarrier" stroke-width="0"/>
<g id="SVGRepo_tracerCarrier" stroke-linecap="round" stroke-linejoin="round"/>
<g id="SVGRepo_iconCarrier"> <g> <g> <g> <path d="M413.968,161.096c-10.832-63.92-65.816-111.512-130.944-112.96C265.88,18.336,234.536,0,200,0 c-40.936,0-77.168,26.096-90.52,64.288c-20.696-2.144-40.208,7.464-51.624,24.056C25.08,91.424,0,118.6,0,152 c0,20.112,9.432,38.624,25.048,50.616C9.568,218.48,0,240.136,0,264c0,48.52,39.48,88,88,88v-16c-39.704,0-72-32.296-72-72 c0-39.696,32.296-72,71.688-72.008l5.536,0.04l2.304-3.992C105.536,170.744,124.12,160,144,160c3.352,0,6.856,0.336,10.424,1.008 l7.424,1.4l1.824-7.336C176.96,101.448,224.8,64,280,64c60.512,0,111.672,45.28,119.008,105.32l0.56,4.592 C399.84,177.24,400,180.6,400,184c0,66.168-53.832,120-120,120v16c74.992,0,136-61.008,136-136c0-2.12-0.176-4.2-0.272-6.296 C452.432,185.088,480,217.768,480,256c0,44.112-35.888,80-80,80v16c52.936,0,96-43.064,96-96 C496,208.424,460.464,167.928,413.968,161.096z M150.056,144.272C148.008,144.088,145.984,144,144,144 c-24.032,0-46.56,12.184-59.856,32.08c-17.272,0.752-33.248,6.528-46.552,15.864C24.2,183.096,16,168.24,16,152 c0-26.144,20.496-47.192,46.648-47.928l4.472-0.128l2.232-3.872C78,85.096,95.08,76.832,113.216,81.112l7.56,1.792l2-7.512 C132.104,40.424,163.848,16,200,16c25.88,0,49.584,12.416,64.496,32.984C211,55.08,165.888,92.208,150.056,144.272z"/> <rect x="352" y="464" width="16" height="32"/> <rect x="352" y="416" width="16" height="32"/> <rect x="352" y="368" width="16" height="32"/> <rect x="304" y="440" width="16" height="32"/> <rect x="304" y="392" width="16" height="32"/> <rect x="256" y="464" width="16" height="32"/> <rect x="256" y="416" width="16" height="32"/> <rect x="256" y="368" width="16" height="32"/> <rect x="208" y="440" width="16" height="32"/> <rect x="208" y="392" width="16" height="32"/> <rect x="160" y="464" width="16" height="32"/> <rect x="160" y="416" width="16" height="32"/> <rect x="160" y="368" width="16" height="32"/> <rect x="112" y="440" width="16" height="32"/> <rect x="112" y="392" width="16" height="32"/> <rect x="352" y="320" width="16" height="32"/> <rect x="304" y="344" width="16" height="32"/> <rect x="256" y="320" width="16" height="32"/> <rect x="208" y="344" width="16" height="32"/> <rect x="160" y="320" width="16" height="32"/> <rect x="112" y="344" width="16" height="32"/> </g> </g> </g> </g>
</svg>